<?xml version="1.0" standalone="no"?><!DOCTYPE svg PUBLIC "-//W3C//DTD SVG 1.1//EN" "http://www.w3.org/Graphics/SVG/1.1/DTD/svg11.dtd"><svg t="1750595937679" class="icon" viewBox="0 0 1024 1024" version="1.1" xmlns="http://www.w3.org/2000/svg" p-id="6258" width="32" height="32" xmlns:xlink="http://www.w3.org/1999/xlink"><path d="M578.3 881.01c-0.21 0.04-0.41 0.09-0.62 0.13a251.3 251.3 0 0 0 20.17 67.96c0.2-0.04 0.41-0.09 0.61-0.13-9.85-21.49-16.64-44.32-20.16-67.96zM200.98 768.24a360.797 360.797 0 0 1-38.22-41.99 404.181 404.181 0 0 0 51.99 56.21c-4.87-4.59-9.48-9.32-13.77-14.22zM953.03 375.72c4.81 21.21 8.16 42.74 10.05 64.55-1.66-21.8-5.02-43.39-10.05-64.55z m-23.99-76.78c-3.75-8.94-7.85-17.75-12.23-26.44 3.58 7.38 6.98 14.88 10.19 22.47a477.307 477.307 0 0 1 21.44 62.25c-5.24-19.86-11.53-39.49-19.4-58.28z m-63.47 451.03h-23.44l0.15 0.15h23.44l-0.15-0.15z m47.61-66.08c-10.45-10.21-25.06-13.54-38.23-10.05 13-3.23 27.32 0.15 37.61 10.2l3.2 3.13c0.09-0.17 0.18-0.33 0.27-0.5l-2.85-2.78z" fill="#a81704" p-id="6259"></path><path d="M865.57 749.97h-82.55c-0.04 0.05-0.09 0.1-0.13 0.15h82.83l-0.15-0.15z m50.46-63.3l-2.85-2.78c-10.45-10.21-25.06-13.54-38.23-10.05 13-3.23 27.32 0.15 37.61 10.2l3.2 3.13 2.57 2.51c0.09-0.17 0.17-0.34 0.25-0.51l-2.55-2.5z m33.13-326.72c1.17 4.52 2.29 9.05 3.36 13.58-1.05-4.54-2.17-9.07-3.36-13.58z m-350.7 589.02c-9.85-21.49-16.64-44.32-20.16-67.96-0.36-2.43-0.69-4.88-0.98-7.33l-0.62 0.15c0.29 2.44 0.62 4.88 0.98 7.31a251.3 251.3 0 0 0 20.17 67.96c0.27 0.6 0.55 1.2 0.83 1.8l0.61-0.15c-0.29-0.59-0.56-1.19-0.83-1.78z" fill="#a81704" p-id="6260"></path><path d="M963.21 441.88c-0.03-0.54-0.08-1.07-0.13-1.61a478.323 478.323 0 0 0-10.05-64.55c-0.13-0.59-0.27-1.17-0.41-1.75l-0.09-0.38c0-0.02-0.01-0.04-0.01-0.06-1.07-4.53-2.19-9.06-3.36-13.58-0.22-0.91-0.47-1.82-0.72-2.73A477.307 477.307 0 0 0 927 294.97c-3.21-7.59-6.61-15.09-10.19-22.47-23.46-48.47-54.72-92.39-93.14-130.81-44.28-44.27-95.85-79.04-153.28-103.33C610.91 13.2 547.75 0.45 482.67 0.45c-65.09 0-128.24 12.75-187.72 37.91-57.43 24.29-109 59.06-153.28 103.33-44.27 44.28-79.04 95.85-103.33 153.28C13.18 354.44 0.43 417.6 0.43 482.69c0 65.08 12.75 128.24 37.91 187.72 24.29 57.43 59.06 109 103.33 153.28 44.28 44.27 95.85 79.04 153.28 103.33 59.48 25.16 122.63 37.91 187.72 37.91 39.51 0 78.31-4.7 116.01-14.03-0.28-0.6-0.56-1.2-0.83-1.8a251.3 251.3 0 0 1-20.17-67.96c-0.36-2.43-0.69-4.87-0.98-7.31-6.2 1.49-12.46 2.84-18.77 4.04 6.87-11.99 12.81-24.33 17.58-37.06 0.22-26.83 4.58-53 12.75-77.8-1.28-26.08-8.3-51.23-20.09-75.41-8.1-16.58-18.33-31.7-29.58-46.35a197.503 197.503 0 0 0-40.88-40.11c-28.67-20.66-61.27-30.34-95.72-32.81-24.89-1.8-49.52 0.69-74.13 3.62-20.97 2.54-42 4.52-63.09 5.93-10.59 0.72-12.61-1.99-14.11-12.67-5.23-37.16-12.04-74.02-25.97-109.45-10.01-25.45-22.9-48.91-42.91-68.47-21.77-21.27-47.24-31.34-76.81-31.2-1.37-0.01-2.75 0.05-4.18 0.15 19.85-59.8 53.38-113.41 96.87-157.11 5.73 13.13 11.13 26.14 17.78 38.5a133.79 133.79 0 0 0 53.73 54.08c26.48 14.79 55.3 18.77 84.36 19.65 23.43 0.86 46.64-2.99 68.26-11.31 26.59-10.36 48.74-26.34 65.64-49.1 11.42-15.41 19.1-32.89 25.46-51.07 0.97-2.8 4.52-6.04 7.34-6.45 10.26-1.45 20.69-1.88 31.03-2.56 15.78-1.03 31.74-0.92 47.3-3.2 27.3-3.95 51.45-14.62 69.83-35.65 3.47-3.98 7.02-7.88 10.77-12.07 7.31 4.71 14.7 9.18 21.93 14.15 7.22 4.96 14.09 10.4 21.21 15.52 5.48 3.93 10.75 8.42 16.73 11.36 4.18 2.06 8.68 3.19 13.18 3.4 8.82 7.96 17.28 16.32 25.36 25.04-13.48 5.89-26.85 11.4-39.54 18.22a133.79 133.79 0 0 0-54.08 53.73c-14.79 26.49-18.77 55.31-19.65 84.37-0.85 23.43 2.99 46.64 11.31 68.25 10.36 26.6 26.34 48.75 49.11 65.64 15.4 11.42 32.88 19.11 51.06 25.46 2.81 0.98 6.05 4.53 6.46 7.35 1.44 10.25 1.88 20.68 2.55 31.02 0.62 9.57 0.83 19.2 1.42 28.77 14.32-2.47 28.96-3.73 43.79-3.73 8.66 0 17.25 0.43 25.75 1.28-0.96-9.84-1.59-19.73-1.8-29.61-0.39-18.48-0.84-36.86-6.73-54.36-7.8-23.14-22.92-39.52-46.55-46.71-15.15-4.61-29.53-10.66-40.79-21.42a78.548 78.548 0 0 1-17.96-26.01c-11.76-28.41-10.42-58.28-2.31-88 5.87-21.36 22.05-33.41 41.46-42.08 13.8-6.16 28.15-9.49 42.72-11.86 38.72 61.79 61.12 134.81 61.12 212.96 0 37.73-5.22 74.26-14.99 108.91 2.81 0.43 5.61 0.92 8.4 1.46 22.98 4.38 45.1 11.91 65.86 22.34 0.66 0.33 1.31 0.66 1.96 1 12.48-43.21 18.77-87.99 18.77-133.71 0-13.7-0.56-27.31-1.7-40.81z m-847.75-15.56c11.99 1.39 20.26 8.73 26.56 17.8 20.15 29.09 28.23 62.41 34.66 96.2 3.44 18.07 5.64 36.6 11.45 53.99 10.06 30.12 32.8 46.84 63.69 51.75 24.23 3.86 48.01-0.25 71.89-2.89 23.59-2.6 47.3-5.16 71.07-5.48 25.12-0.33 49.09 6.95 69.18 23.38 15.44 12.64 27.4 28.53 37.46 45.94 11.63 20.05 18 41.38 17.63 64-0.44 26.33-8.75 50.53-22.27 72.57-7.65 12.46-16.43 24.18-24.71 36.25-1.34 1.93-2.79 3.53-4.37 4.82-96.94-3.56-185.24-41.59-252.95-102.19a404.181 404.181 0 0 1-51.99-56.21c-51.64-67.64-82.33-152.08-82.33-243.56 0-16.87 1.04-33.5 3.08-49.82 0.48-0.22 1.01-0.43 1.57-0.62 9.9-3.31 19.39-7.18 30.38-5.93z m473.88-307.69c-13.7 1.67-27.55 2.79-41.37 3.08-18.48 0.39-36.86 0.85-54.37 6.73-23.14 7.81-39.51 22.93-46.7 46.56-4.61 15.14-10.67 29.52-21.43 40.79a78.628 78.628 0 0 1-26 17.95c-28.41 11.76-58.28 10.42-88 2.31-21.36-5.87-33.41-22.04-42.08-41.45-6.46-14.47-9.82-29.55-12.21-44.85 57.55-39.1 125.72-63.69 199.21-68.45 15.49-0.32 31.03 0.22 46.63 1.46 35.86 2.83 70.59 11.16 104.69 23.23 1.7 0.58 3.26 1.18 5.82 2.15-6.81 5.79-15.21 9.43-24.19 10.49z" fill="#a81704" p-id="6261"></path><path d="M598.46 948.97c-9.85-21.49-16.64-44.32-20.16-67.96-0.36-2.43-0.69-4.88-0.98-7.33l-0.62 0.15c0.29 2.44 0.62 4.88 0.98 7.31a251.3 251.3 0 0 0 20.17 67.96c0.27 0.6 0.55 1.2 0.83 1.8l0.61-0.15c-0.29-0.59-0.56-1.19-0.83-1.78z" fill="#a81704" p-id="6262"></path><path d="M1000.93 805.22a40 40 0 0 1-37.05 24.9H692.2c-22.09 0-40-17.91-40-40s17.91-40 40-40h173.52l-0.15-0.15h0.76l-9.07-8.86c-15.8-15.44-16.09-40.77-0.65-56.57a39.85 39.85 0 0 1 17.83-10.57c0.17-0.05 0.34-0.09 0.51-0.13 13-3.23 27.32 0.15 37.61 10.2l3.2 3.13 2.57 2.51 73.51 71.83a40.029 40.029 0 0 1 9.09 43.71z" fill="#a81704" p-id="6263"></path><path d="M857.26 741.11l9.07 8.86h-0.76l-8.92-8.71c-15.8-15.44-16.09-40.76-0.65-56.56 5.26-5.38 11.66-8.96 18.44-10.73a39.85 39.85 0 0 0-17.83 10.57c-15.44 15.8-15.15 41.13 0.65 56.57z" fill="#a81704" p-id="6264"></path><path d="M1003.88 896.09c0 22.1-17.9 40-40 40H790.37l9.06 8.86c15.8 15.44 16.1 40.77 0.66 56.57-7.84 8.02-18.22 12.04-28.62 12.04-10.08 0-20.17-3.79-27.95-11.39l-79.28-77.47c-11.63-11.36-15.22-28.64-9.08-43.7 6.13-15.06 20.78-24.91 37.04-24.91h271.68c22.1 0 40 17.91 40 40z" fill="#a81704" p-id="6265"></path></svg>